<?xml version="1.0" encoding="utf-8"?>
<!-- Svg Vector Icons : http://www.onlinewebfonts.com/icon -->
<!DOCTYPE svg PUBLIC "-//W3C//DTD SVG 1.1//EN" "http://www.w3.org/Graphics/SVG/1.1/DTD/svg11.dtd">
<svg version="1.1" xmlns="http://www.w3.org/2000/svg" xmlns:xlink="http://www.w3.org/1999/xlink" x="0px" y="0px" viewBox="0 0 1000 1000" enable-background="new 0 0 1000 1000" xml:space="preserve">
<metadata> Svg Vector Icons : http://www.onlinewebfonts.com/icon </metadata>
<g><g><path d="M500,990c270.6,0,490-219.4,490-490c0-270.6-219.4-490-490-490C229.4,10,10,229.4,10,500C10,770.6,229.4,990,500,990z M438.8,525c27.4-5.8,54.3-4.5,78,2.5V289.9c0-23.2,18.8-42.1,42.1-42.1c23.3,0,42.1,18.8,42.1,42.1v25.2c8.1,4.1,17.6,8.3,28.3,12c41.1,14.3,68.8,47.8,71.3,83c0.8,10.6,1.1,19.8,1.1,27.4c0.1,15.1-3.6,29.8-6.7,32.7c-3.1,2.9-9.5,2.9-14.2,0c-4.8-2.9-8.5-15.3-13.4-26.2c-2.7-5.9-6.9-11.9-13.5-16.3c-9-6-31.7-11.8-53-19.8v214.1c0,2.5-0.3,4.9-0.7,7.3c-1,54.2-47.7,105-114,119.1c-75,15.9-146.4-21.2-159.5-82.9C313.7,603.8,363.8,540.9,438.8,525z"/></g><g></g><g></g><g></g><g></g><g></g><g></g><g></g><g></g><g></g><g></g><g></g><g></g><g></g><g></g><g></g></g>
</svg>