<?xml version="1.0" encoding="utf-8"?>
<!-- Svg Vector Icons : http://www.onlinewebfonts.com/icon -->
<!DOCTYPE svg PUBLIC "-//W3C//DTD SVG 1.1//EN" "http://www.w3.org/Graphics/SVG/1.1/DTD/svg11.dtd">
<svg version="1.1" xmlns="http://www.w3.org/2000/svg" xmlns:xlink="http://www.w3.org/1999/xlink" x="0px" y="0px" viewBox="0 0 1000 1000" enable-background="new 0 0 1000 1000" xml:space="preserve">
<metadata> Svg Vector Icons : http://www.onlinewebfonts.com/icon </metadata>
<g><g transform="translate(0.000000,511.000000) scale(0.100000,-0.100000)"><path d="M4887.4,4964.9l-57.4-49.2V4454c0-461.6,0-461.6,49.2-515c67.7-71.8,180.6-73.9,246.2-4.1c49.2,53.3,47.2,24.6,45.1,623.7c-2.1,348.8-2.1,355-53.4,404.2C5053.6,5028.5,4963.4,5028.5,4887.4,4964.9z"/><path d="M2519.7,4318.6c-32.8-32.8-59.5-82.1-59.5-106.7c0-59.5,420.6-787.9,478-828.9c61.6-43.1,143.6-39,203.1,10.3c63.6,49.2,80,121,47.2,199c-49.2,114.9-404.2,714-445.2,750.9C2679.8,4396.6,2589.5,4388.4,2519.7,4318.6z"/><path d="M7255.1,4333c-24.6-26.7-137.5-207.2-248.3-402.1c-223.6-391.9-240-451.4-145.7-531.4c28.7-26.7,80-47.2,112.8-47.2s82.1,20.5,110.8,47.2c86.2,78,449.3,732.5,451.4,812.5C7536.2,4351.4,7351.6,4431.4,7255.1,4333z"/><path d="M4563.3,3138.9C3399.9,2948,2452,2141.7,2093,1042c-112.8-348.8-135.4-496.5-135.4-931.5c0-344.7,6.2-428.8,47.2-615.5c242.1-1079.2,1032-1957.3,2068.1-2295.9c350.8-114.9,496.5-135.4,931.5-135.4c313.9,0,437,8.2,574.5,39c613.5,133.4,1146.9,422.6,1579.8,853.5c432.9,435,734.5,995.1,855.6,1594.2c55.4,272.9,51.3,890.5-10.3,1159.2c-268.8,1212.6-1188,2133.8-2394.4,2398.5C5369.6,3161.4,4801.3,3177.8,4563.3,3138.9z M5435.2,2788c389.8-63.6,789.9-221.6,1122.3-443.2c203.1-135.4,543.7-476,677.1-675C7577.3,1159,7729.1,621.4,7706.5,7.9c-26.7-730.4-274.9-1311-781.7-1817.8c-332.4-332.4-646.3-523.2-1087.4-662.7c-309.8-98.5-560.1-131.3-935.6-119c-445.2,16.4-744.8,88.2-1124.3,274.9c-728.4,357-1255.7,1044.3-1434.2,1873.2c-53.3,246.2-53.3,861.7,0,1107.9c178.5,835.1,718.1,1530.6,1460.8,1887.6c203.1,96.4,504.7,192.9,707.8,225.7c84.1,12.3,168.2,26.7,184.7,30.8C4795.1,2827,5269.1,2814.7,5435.2,2788z"/><path d="M847.6,2634.1C738.9,2589,704,2439.2,784,2361.3c24.6-24.6,203.1-135.4,396-246.2c393.9-221.6,463.7-242.1,539.6-145.7c55.4,71.8,55.4,158-2.1,221.6c-51.3,55.4-711.9,437-783.8,453.4C911.2,2648.5,870.2,2644.4,847.6,2634.1z"/><path d="M8687.2,2441.3c-203.1-119-385.7-235.9-404.2-260.6c-121-145.7,57.5-334.4,229.8-244.2c207.2,108.7,693.5,402.1,724.2,435c78,90.3,8.2,250.3-119,272.9C9066.8,2654.7,8992.9,2619.8,8687.2,2441.3z"/><path d="M277.2,276.7C109,252.1,47.4,114.6,150-6.4l49.2-57.4l469.9,6.2c443.2,6.2,469.8,8.2,512.9,49.3c32.8,30.8,47.2,67.7,47.2,116.9c-2.1,88.2-34.9,135.4-110.8,166.2C1056.9,297.2,441.4,299.3,277.2,276.7z"/><path d="M8954,280.8c-22.6-4.1-61.5-12.3-88.2-18.5c-30.8-6.2-59.5-36.9-78-80c-43.1-104.6,0-201.1,106.7-236c112.8-36.9,878.2-12.3,943.8,30.8c55.4,36.9,78,127.2,49.2,203.1c-36.9,96.4-119,114.9-527.3,112.9C9159.1,291.1,8976.5,287,8954,280.8z"/><path d="M1522.6-1705.3c-141.6-59.5-746.8-426.8-765.3-461.6c-36.9-69.7-22.6-143.6,41-209.3c51.3-49.2,73.9-59.5,123.1-49.2c80,14.4,736.6,393.9,796.1,457.5c24.6,26.7,45.1,75.9,45.1,108.7c0,65.7-69.8,153.9-133.4,172.3C1606.7-1680.6,1557.5-1688.8,1522.6-1705.3z"/><path d="M8291.3-1742.2c-61.6-65.7-59.5-178.5,2-233.9c24.6-22.6,203.1-131.3,393.9-242.1c391.9-225.7,453.4-244.1,535.5-145.7c63.6,71.8,63.6,164.1,4.1,223.6c-26.7,24.6-205.2,135.4-398,246.2C8443.1-1676.5,8371.3-1656,8291.3-1742.2z"/><path d="M2917.8-3176.3c-22.6-26.7-133.4-203.1-244.2-396c-225.7-391.9-242.1-451.4-143.6-535.5c65.7-57.5,155.9-63.6,213.4-12.3c22.6,18.5,135.4,197,248.3,396c231.9,402.1,250.3,473.9,153.9,549.9C3071.7-3116.8,2971.1-3118.9,2917.8-3176.3z"/><path d="M6855-3176.3c-90.3-98.5-82.1-123.1,149.8-529.4c119-209.3,235.9-396,258.5-414.5c59.5-51.3,149.8-45.1,215.4,12.3c98.5,82.1,82.1,143.6-143.6,535.5c-110.8,192.9-223.6,369.3-252.4,396c-30.8,26.7-75.9,45.1-117,45.1C6922.7-3131.2,6883.8-3147.6,6855-3176.3z"/><path d="M4928.5-3674.9c-94.4-41-108.7-110.8-108.7-547.8c0-412.4,16.4-504.7,98.5-547.8c69.8-36.9,145.7-26.7,199,28.7l51.3,49.3v469.8c0,459.6,0,469.9-45.1,510.9C5059.8-3656.4,5002.3-3644.1,4928.5-3674.9z"/></g></g>
</svg>